HIERARCHY
ROOT ui
{
	 OFFSET 0 0 0
	 CHANNELS 3 XPosition YPosition Z Position
	 EndSite
	 {
	 OFFSET 0 -1 0
	 }
}
ROOT li
{
	 OFFSET 0 0 0
	 CHANNELS 3 XPosition YPosition Z Position
	 EndSite
	 {
	 OFFSET 0 -1 0
	 }
}
ROOT ul
{
	 OFFSET 0 0 0
	 CHANNELS 3 XPosition YPosition Z Position
	 EndSite
	 {
	 OFFSET 0 -1 0
	 }
}
ROOT ll
{
	 OFFSET 0 0 0
	 CHANNELS 3 XPosition YPosition Z Position
	 EndSite
	 {
	 OFFSET 0 -1 0
	 }
}
ROOT tt
{
	 OFFSET 0 0 0
	 CHANNELS 3 XPosition YPosition Z Position
	 EndSite
	 {
	 OFFSET 0 -1 0
	 }
}
ROOT tb
{
	 OFFSET 0 0 0
	 CHANNELS 3 XPosition YPosition Z Position
	 EndSite
	 {
	 OFFSET 0 -1 0
	 }
}
ROOT td
{
	 OFFSET 0 0 0
	 CHANNELS 3 XPosition YPosition Z Position
	 EndSite
	 {
	 OFFSET 0 -1 0
	 }
}
ROOT v
{
	 OFFSET 0 0 0
	 CHANNELS 3 XPosition YPosition Z Position
	 EndSite
	 {
	 OFFSET 0 -1 0
	 }
}
ROOT bn
{
	 OFFSET 0 0 0
	 CHANNELS 3 XPosition YPosition Z Position
	 EndSite
	 {
	 OFFSET 0 -1 0
	 }
}
MOTION
Frames: 13
Frame Time: 0.002
-0.0013974829912185669	0.0022443900108337403	0		0.3727068176269531	-2.388808837890625	0		-1.1213056640625	0.022287246704101562	0		-0.65935546875	-2.768245849609375	0		1.8689979248046875	-0.6708572998046874	0		3.276207763671875	0.10556128692626954	0		4.524255859375	0.3327212829589844	0		6.01157421875	0.5368086547851563	0		-0.40308056640625	5.80749609375	0		
0.015558512687683105	3.830859959125519E-4	0		0.44251553344726563	-2.3959775390625	0		-1.0393223876953126	0.025127777099609373	0		-0.6464505004882812	-2.754052734375	0		1.88395849609375	-0.6658010864257813	0		3.322201171875	0.10937847137451172	0		4.52528515625	0.33973867797851565	0		6.02460595703125	0.5436690673828125	0		-0.40083477783203125	5.80573681640625	0		
-0.0014884120225906372	0.0027128920555114745	0		0.40639422607421877	-2.3845654296875	0		-1.0524395751953124	0.014490433692932129	0		-0.6555907592773438	-2.74273291015625	0		1.8809263916015626	-0.6546452026367188	0		3.296154541015625	0.11058648681640625	0		4.5352958984375	0.3477044677734375	0		6.01153759765625	0.5366657104492187	0		-0.40258120727539065	5.80800537109375	0		
-0.0015748870372772217	0.0029532070159912108	0		0.4291409912109375	-2.391474365234375	0		-0.98557080078125	0.006415132999420166	0		-0.6617461547851563	-2.728424560546875	0		1.874838134765625	-0.6484722290039062	0		3.29800146484375	0.09763968658447265	0		4.54522998046875	0.34666558837890626	0		6.01147998046875	0.536584716796875	0		-0.36733026123046875	5.81307275390625	0		
-0.04473715591430664	-0.004565659999847412	0		0.4019031066894531	-2.389106689453125	0		-1.065704345703125	0.004157594203948975	0		-0.6600029296875	-2.726159423828125	0		1.88072900390625	-0.6403690185546875	0		3.301922119140625	0.10367606353759766	0		4.5301396484375	0.34675930786132814	0		6.01139111328125	0.5364946899414063	0		-0.43126864624023437	5.78869189453125	0		
-0.004859985828399659	4.4625601172447205E-4	0		0.42860687255859375	-2.391046142578125	0		-1.0539111328125	-0.005614354133605957	0		-0.6902379150390625	-2.713716796875	0		1.89254833984375	-0.6393067016601562	0		3.317777587890625	0.10363590240478515	0		4.52201171875	0.34580569458007815	0		6.02026513671875	0.5353419799804687	0		-0.4009865417480469	5.8077822265625	0		
-0.002020751953125	0.003657895088195801	0		0.41629782104492186	-2.389773681640625	0		-1.049072265625	-0.0023540160655975344	0		-0.6455435180664062	-2.7087060546875	0		1.8984537353515625	-0.6182212524414062	0		3.301605712890625	0.10376577758789063	0		4.535953125	0.36171478271484375	0		6.02011767578125	0.5352254028320312	0		-0.4008315124511719	5.80803369140625	0		
0.007729353904724121	-0.005181838989257812	0		0.4319835510253906	-2.385672607421875	0		-1.0583106689453126	-0.00902303981781006	0		-0.6418761596679687	-2.704473876953125	0		1.90232373046875	-0.600137451171875	0		3.32740185546875	0.10164110565185547	0		4.54173876953125	0.35365426635742186	0		6.019951171875	0.5350925903320313	0		-0.365668701171875	5.812072265625	0		
-0.002427880048751831	0.004079440116882324	0		0.42961587524414063	-2.38848291015625	0		-1.0625382080078125	-0.01173375129699707	0		-0.5891702270507813	-2.6915419921875	0		1.9020787353515625	-0.6000460205078125	0		3.331233154296875	0.10762509918212891	0		4.52655908203125	0.3536983032226563	0		6.01077880859375	0.535993896484375	0		-0.42868646240234376	5.78666552734375	0		
-0.005658502101898193	0.0012831259965896606	0		0.40026116943359374	-2.388151611328125	0		-1.062752197265625	-0.011484796524047852	0		-0.6635067749023438	-2.684885009765625	0		1.898977294921875	-0.5749560546875	0		3.29399755859375	0.1028311309814453	0		4.5314169921875	0.36060626220703124	0		6.01554443359375	0.5267930908203124	0		-0.4004265441894531	5.80871142578125	0		
0.007096876144409179	-0.004629374027252197	0		0.4108799743652344	-2.393076416015625	0		-1.0629615478515626	-0.01125690746307373	0		-0.6468878784179688	-2.6867822265625	0		1.854865966796875	-0.5526432495117187	0		3.303782958984375	0.10073954010009765	0		4.5162392578125	0.36061056518554685	0		6.01141455078125	0.534622314453125	0		-0.399294677734375	5.80789404296875	0		
0.006900463104248047	-0.004490182876586914	0		0.4076317138671875	-2.377943359375	0		-1.0631583251953125	-0.01105403709411621	0		-0.6751652221679687	-2.67343603515625	0		1.8667330322265625	-0.5366864624023437	0		3.32257421875	0.09756831359863281	0		4.52112158203125	0.3684720458984375	0		6.02329833984375	0.5423318481445313	0		-0.3830973510742188	5.8159609375	0		
0.009742071151733398	-0.0013970619440078736	0		0.4322845153808594	-2.38300732421875	0		-0.9963851318359375	-0.019286413192749024	0		-0.651481201171875	-2.67043017578125	0		1.88669482421875	-0.5088065795898438	0		3.30837353515625	0.09256956481933594	0		4.52588427734375	0.3533080749511719	0		6.02315380859375	0.5420889282226562	0		-0.3989794006347656	5.8081923828125	0		
